<svg width="30" height="30" fill="none" xmlns="http://www.w3.org/2000/svg"><path id="Vector" d="M15 0C6.66 0 0 6.66 0 15c0 8.33 6.66 15 15 15 8.33 0 15-6.67 15-15 0-8.34-6.67-15-15-15zm0 11.66c1.83 0 3.33 1.5 3.33 3.34 0 1.83-1.5 3.33-3.33 3.33-1.84 0-3.34-1.5-3.34-3.33 0-1.84 1.5-3.34 3.34-3.34zm4.66-3.33c0-1.17 1-2 2-2s2 1 2 2-.83 2-2 2c-1.16 0-2-.83-2-2zM15 26.66C8.5 26.66 3.33 21.5 3.33 15h5c0 3.66 3 6.66 6.67 6.66 3.66 0 6.66-3 6.66-6.66h5c0 6.5-5.16 11.66-11.66 11.66z" fill="#5C5C5E" fill-opacity="1" fill-rule="nonzero"/></svg>